<svg xmlns="http://www.w3.org/2000/svg" width="22.06" height="21.21" viewBox="0 0 22.06 21.21">
	<path fill="#826550" d="M15.83,12.02C15.73,12.69 15.12,13.47 14.4,13.51C13.12,13.58 12.46,11.62 11.02,11.64C9.59,11.62 8.93,13.58 7.66,13.51C6.93,13.47 6.32,12.69 6.22,12.02C6.08,11.19 6.48,10.05 6.94,9.6C7.41,9.15 8.15,9.2 8.94,9.09C9.81,8.96 10.57,8.71 11.02,8.25C11.02,8.24 11.02,8.24 11.02,8.25C11.48,8.71 12.23,8.96 13.11,9.09C13.9,9.21 14.64,9.15 15.11,9.6C15.57,10.05 15.97,11.19 15.83,12.02M21.81,0L21.7,0C20.71,3.29 20.45,7.31 17.69,8.84C17.18,7.4 15.93,6.75 14.5,6.12C13.59,5.72 12.55,5.02 11.67,4.98C11.46,4.98 11.22,4.97 11.03,5.12C10.83,4.97 10.6,4.98 10.39,4.98C9.51,5.02 8.46,5.72 7.56,6.12C6.13,6.75 4.88,7.4 4.37,8.84C1.61,7.31 1.34,3.29 0.35,0L0.25,0C0.12,0.29 0.08,0.68 0,1.02C0,1.85 0.23,10.22 0.82,13.21C1.35,15.91 3.42,17.86 5.45,19.13C6.86,20.02 9.09,21.21 11.03,21.21C12.96,21.21 15.2,20.02 16.61,19.13C18.64,17.86 20.71,15.91 21.24,13.21C21.83,10.22 22.06,1.85 22.06,1.02C21.98,0.68 21.94,0.29 21.81,0"/>
</svg>
