<svg xmlns="http://www.w3.org/2000/svg" width="62.39" height="78.48" viewBox="0 0 62.39 78.48">
	<path fill="#826550" d="M33.23,26.76C32.55,26.62 29.84,26.62 29.15,26.76C27.42,27.1 23.39,27.74 23.39,25.68C23.39,24.61 30.11,23.38 31.19,23.38C32.27,23.38 38.99,24.61 38.99,25.68C38.99,27.74 34.97,27.1 33.23,26.76M62.39,42C62.39,36.78 60.03,34.22 58.79,32.03C57.89,30.43 54.82,21.28 54.59,14.4C54.53,9.49 52.9,1.95 51.71,0C50.85,0 50.19,7.78 49.43,11.63C48.01,18.68 45.67,20.57 45,20.63C44.24,17.83 40.88,13.27 31.32,12.91C31.27,12.89 31.24,12.88 31.19,12.87C31.15,12.88 31.12,12.89 31.07,12.91C21.51,13.27 18.15,17.83 17.39,20.63C16.72,20.57 14.38,18.68 12.95,11.63C12.19,7.78 11.54,0 10.67,0C9.49,1.95 7.86,9.49 7.79,14.4C7.57,21.28 4.5,30.43 3.59,32.03C2.36,34.22 0,36.78 0,42C0,45.74 5.19,49.2 5.63,53.39C5.76,54.62 5.6,55.74 5.75,56.76C7.76,74.24 23.62,78.48 31.19,78.48C38.77,78.48 54.63,74.24 56.63,56.76C56.78,55.74 56.63,54.62 56.75,53.39C57.19,49.2 62.39,45.74 62.39,42"/>
</svg>
