<svg xmlns="http://www.w3.org/2000/svg" width="44.65" height="104.78" viewBox="0 0 44.65 104.78">
	<path fill="#826550" d="M22.32,28.15C18.93,28.15 15.64,28.33 12.18,28.67C13.32,26.92 21.17,25.43 22.32,25.23C23.47,25.43 31.33,26.92 32.47,28.67C29.01,28.33 25.72,28.15 22.32,28.15M43.39,0L43.27,0C40.45,21.52 37.89,22.56 36.31,22.67C34.88,22.78 32.66,20.9 31.39,20.16C29.9,19.28 27.31,17.61 22.32,17.61C17.34,17.61 14.75,19.28 13.26,20.16C11.99,20.9 9.77,22.78 8.34,22.67C6.76,22.56 4.2,21.52 1.38,0L1.26,0C-0.8,12.2 -0.29,50.2 2.46,63.59C5.07,82.11 12.57,98.7 15.9,103.19C16.59,104.23 19.44,104.76 22.32,104.78C25.21,104.76 28.06,104.23 28.75,103.19C32.07,98.7 39.57,82.11 42.18,63.59C44.94,50.2 45.46,12.2 43.39,0"/>
</svg>
