<svg xmlns="http://www.w3.org/2000/svg" width="44.97" height="12.9" viewBox="0 0 44.97 12.9">
	<path fill="#826550" d="M22.48,8.24C23.63,9.94 26.12,12.68 31.26,12.89C38.42,13.16 44.97,7.67 44.97,5.6C42.21,8.1 37.61,8.32 35.04,7.3C31.26,5.79 31.92,2.81 29.17,0.85C27.61,-0.25 25.38,-0.31 23.48,0.85C23.14,1.07 22.8,1.34 22.48,1.66C22.17,1.34 21.83,1.06 21.49,0.85C19.58,-0.31 17.36,-0.25 15.8,0.85C13.05,2.81 13.7,5.79 9.92,7.3C7.36,8.32 2.75,8.1 0,5.6C0,7.67 6.54,13.16 13.7,12.89C18.85,12.68 21.33,9.94 22.48,8.24"/>
</svg>
