<svg xmlns="http://www.w3.org/2000/svg" width="21" height="20" viewBox="0 0 21 20">
	<path fill="#826550" d="M21,1L17,1L11,7L13,9ZM10,9.5C10.3,9.5 10.5,9.69 10.5,10C10.5,10.3 10.3,10.5 10,10.5C9.69,10.5 9.5,10.3 9.5,10C9.5,9.69 9.69,9.5 10,9.5M4,18C2.89,18 2,17.1 2,16C2,14.89 2.89,14 4,14C5.1,14 6,14.89 6,16C6,17.1 5.1,18 4,18M4,6C2.89,6 2,5.09 2,4C2,2.9 2.89,2 4,2C5.1,2 6,2.9 6,4C6,5.09 5.1,6 4,6M8,4C8,1.79 6.19,0 4,0C1.79,0 0,1.79 0,4C0,6.19 1.79,8 4,8C4.6,8 5.1,7.9 5.6,7.59L8,10L5.6,12.39C5.1,12.1 4.6,12 4,12C1.79,12 0,13.8 0,16C0,18.2 1.79,20 4,20C6.19,20 8,18.2 8,16C8,15.39 7.89,14.89 7.6,14.39L10,12L17,19L21,19L7.6,5.59C7.89,5.09 8,4.59 8,4"/>
</svg>
