<svg xmlns="http://www.w3.org/2000/svg" width="94.94" height="94.16" viewBox="0 0 94.94 94.16">
	<style type="text/css">
		.st0{fill: #826550;}
	</style>
	<path class="st0" d="M90.28,28.38C88.18,23.55 85.29,19.12 81.77,15.29C81.12,16.55 80.46,17.81 79.8,19.07C82.37,22.07 84.54,25.44 86.22,29.08C87.56,28.84 88.91,28.61 90.28,28.38"/>
	<path class="st0" d="M90,43.56C90.1,44.72 90.16,45.89 90.16,47.08C90.16,70.87 70.87,90.16 47.08,90.16C46.29,90.16 45.51,90.13 44.73,90.09C44.87,90.66 44.96,91.27 44.95,91.93C44.94,92.69 44.8,93.41 44.55,94.09C45.39,94.13 46.23,94.16 47.08,94.16C73.04,94.16 94.16,73.04 94.16,47.08C94.16,44.99 94.01,42.94 93.74,40.92C92.55,41.87 91.3,42.75 90,43.56"/>
	<path class="st0" d="M4,47.08C4,23.28 23.28,4 47.08,4C54.94,4 62.3,6.11 68.65,9.79C69.73,8.93 70.86,8.05 72.01,7.16C64.77,2.63 56.23,0 47.08,0C21.12,0 0,21.12 0,47.08C0,66.88 12.3,83.86 29.65,90.8C29.25,89.3 29.09,87.73 29.08,86.22C14.28,79.4 4,64.45 4,47.08"/>
	<path class="st0" d="M36.78,74.99C34.93,65.99 43.79,58.04 48.68,65.74C48.94,73.16 42.5,81.51 36.78,74.99M47.08,46.08C48.5,46.08 49.66,47.23 49.66,48.66C49.66,50.09 48.5,51.24 47.08,51.24C45.65,51.24 44.49,50.09 44.49,48.66C44.49,47.23 45.65,46.08 47.08,46.08M38.77,84.9C46.5,82.18 55.08,75.24 53.3,65.08C52.41,59.93 48.82,60.07 46.03,55.82C60.47,43.83 70.25,27.17 79.08,9.56L77.1,9.56C69.65,15.22 55.19,26.55 48.68,36C46.08,39.78 44.09,45.31 41.41,49.88C36.87,57.62 26.28,71.11 34.8,80.94C33.42,85.56 33.6,93.32 38.77,93.49C42.03,91.77 37.38,88.89 38.77,84.9"/>
	<path class="st0" d="M55.95,51.2C69.91,46 86.53,43.44 94.94,32.69C85.52,34.07 76.82,36.16 67.18,37.32C65.05,43.55 60.15,47.03 55.95,51.2"/>
	<path class="st0" d="M17.62,47.23C12.49,36.39 30.51,36.17 32.16,41.95C34.33,49.58 23.06,49.98 17.62,47.23M12.33,39.96C8.11,52.21 20.76,55.95 34.14,53.84C37.92,49.03 39.99,43.88 36.12,37.98C31.23,30.52 15.21,31.61 12.33,39.96"/>
</svg>
