<svg xmlns="http://www.w3.org/2000/svg" width="94.16" height="88.62" viewBox="0 0 94.16 88.62">
	<style type="text/css">
		.st0{fill: #826550;}
	</style>
	<path class="st0" d="M87.18,22.42C86.61,24.15 86.05,25.9 85.5,27.64C88.47,33.49 90.16,40.09 90.16,47.08C90.16,61.32 83.21,73.96 72.52,81.81C73.68,82.52 74.74,83.39 75.66,84.48C86.9,75.87 94.16,62.32 94.16,47.08C94.16,38.03 91.6,29.59 87.18,22.42"/>
	<path class="st0" d="M9.51,70.33C9.96,70.33 10.41,70.35 10.86,70.36C6.52,63.64 4,55.65 4,47.08C4,23.32 23.32,3.99 47.08,3.99C53.86,3.99 60.27,5.57 65.99,8.38C66.71,7.22 67.51,6.13 68.43,5.12C62.02,1.85 54.76,0 47.08,0C21.07,0 0,21.07 0,47.08C0,55.6 2.27,63.58 6.23,70.48C7.36,70.37 8.47,70.33 9.51,70.33"/>
	<path class="st0" d="M37.66,47.18C38.35,35.48 53.03,35.49 63.31,38.63C63.42,43.35 62.8,48.79 64.63,51.78C57.59,50.93 47.55,47.38 37.66,47.18M53.45,82.04C53.89,75.89 52.58,68.01 54.11,62.97C58.63,62.89 63.67,63.32 67.26,62.31C75.43,47.46 79.28,28.3 85.67,11.67L85.67,9.04C85,5.98 81.92,5.33 79.1,4.43L78.44,4.43C67.84,7.86 66.48,20.54 63.97,32.06C48.18,27.91 31.67,32 31.09,47.18C26.56,47.26 23.1,48.41 21.22,51.13C20.65,57.84 22.79,61.83 27.8,62.97C26.56,68.3 24.16,72.48 20.57,75.46C14.16,76.07 4.93,73.85 1.49,77.43L1.49,80.06C4.65,83.93 14.35,81.24 20.57,82.04C27.16,78.11 29.02,69.45 32.4,62.31C37.08,62.68 43.27,61.53 46.87,62.97L46.87,82.7C39.05,83.2 31.43,83.91 27.8,88.62L72.52,88.62C69.27,83.32 60.05,83.99 53.45,82.04"/>
</svg>
