<svg xmlns="http://www.w3.org/2000/svg" width="57" height="97.68" viewBox="0 0 57 97.68">
	<path fill="#826550" d="M34.44,24.95C31.64,26.13 29.08,24.25 28.56,24.23C28.54,24.23 28.51,24.24 28.5,24.24C28.48,24.24 28.45,24.23 28.44,24.23C27.91,24.25 25.35,26.13 22.56,24.95C21.77,21.37 24.95,20.91 28.5,21.05C32.04,20.91 35.22,21.37 34.44,24.95M51.12,15.23C50.72,9.78 50.51,4.38 48.6,0C47.83,0 47.07,7.31 46.32,10.92C44.84,18.05 42.6,19.2 41.88,19.2C41.02,15.34 37.49,14.95 34.08,13.31C32.87,12.74 31.77,12.26 30.47,12.12C29.81,12.04 29.19,12.22 28.5,12.23C27.8,12.22 27.18,12.04 26.52,12.12C25.22,12.26 24.12,12.74 22.91,13.31C19.5,14.95 15.97,15.34 15.11,19.2C14.39,19.2 12.15,18.05 10.67,10.92C9.92,7.31 9.16,0 8.39,0C6.48,4.38 6.27,9.78 5.87,15.23C5,38.77 0,51.52 0,62.39C0,88.46 11.7,97.68 28.5,97.68C45.29,97.68 57,88.46 57,62.39C57,51.52 52,38.77 51.12,15.23"/>
</svg>
