<svg xmlns="http://www.w3.org/2000/svg" width="51.47" height="49.47" viewBox="0 0 51.47 49.47">
	<path fill="#826550" d="M36.95,28.05C36.7,29.6 35.28,31.44 33.59,31.53C30.61,31.7 29.08,27.12 25.73,27.15C22.37,27.12 20.84,31.7 17.87,31.53C16.17,31.44 14.75,29.6 14.51,28.05C14.2,26.11 15.12,23.45 16.19,22.41C17.29,21.34 19.01,21.48 20.87,21.21C22.9,20.92 24.66,20.33 25.72,19.26C25.72,19.23 25.72,19.23 25.72,19.26C26.79,20.33 28.55,20.91 30.59,21.21C32.44,21.48 34.16,21.34 35.26,22.41C36.34,23.44 37.25,26.11 36.95,28.05M50.87,0L50.63,0C48.33,7.69 47.71,17.07 41.28,20.63C40.09,17.28 37.17,15.74 33.84,14.28C31.72,13.34 29.29,11.72 27.23,11.63C26.74,11.61 26.19,11.6 25.73,11.95C25.28,11.6 24.73,11.61 24.23,11.63C22.18,11.72 19.75,13.34 17.63,14.28C14.3,15.74 11.38,17.28 10.19,20.63C3.76,17.07 3.14,7.69 0.83,0L0.59,0C0.28,0.68 0.2,1.59 0,2.4C0,4.32 0.54,23.86 1.92,30.83C3.16,37.12 7.99,41.66 12.72,44.64C16.01,46.7 21.22,49.47 25.74,49.47C30.25,49.47 35.46,46.7 38.76,44.64C43.48,41.67 48.32,37.12 49.55,30.83C50.93,23.86 51.47,4.32 51.47,2.4C51.27,1.59 51.19,0.68 50.87,0"/>
</svg>
