<svg xmlns="http://www.w3.org/2000/svg" width="57.68" height="68.63" viewBox="0 0 57.68 68.63">
	<path fill="#826550" d="M28.84,25.94L28.84,25.94C26.3,25.98 23.77,25.85 21.68,25.44C22.34,23.38 25.71,23.88 28.76,23.88L28.84,23.88L28.92,23.88C31.96,23.88 35.33,23.38 35.99,25.44C33.9,25.85 31.38,25.98 28.84,25.94M51.59,22.2C51.72,20.5 52.07,18.69 52.31,16.8C53.02,11.37 53.91,5.13 52.19,0L51.95,0C50.63,3.74 50.69,8.34 49.8,12.36C49.13,15.32 48.02,18.01 46.56,19.92C46.03,20.6 45.5,21.46 44.64,21.72C43.97,17.79 40.35,16.77 36.95,15.36C34.83,14.47 32.98,13.34 30.84,13.2C30.05,13.14 29.37,13.38 28.84,13.43C28.3,13.38 27.63,13.14 26.84,13.2C24.69,13.34 22.85,14.47 20.72,15.36C17.32,16.77 13.7,17.79 13.04,21.72C12.18,21.46 11.65,20.6 11.12,19.92C9.65,18.01 8.54,15.32 7.88,12.36C6.98,8.34 7.04,3.74 5.72,0L5.48,0C3.76,5.13 4.65,11.37 5.36,16.8C5.6,18.69 5.95,20.5 6.08,22.2C6.87,33.25 -0.86,45.32 0.08,51.12C1.01,58.64 8.47,60.51 14.24,63.47C18.58,65.71 22.55,68.43 27.56,68.63L28.84,68.63L28.84,68.63L30.11,68.63C35.12,68.43 39.09,65.71 43.43,63.47C49.2,60.51 56.66,58.64 57.59,51.12C58.55,45.31 50.8,33.25 51.59,22.2"/>
</svg>
