<svg xmlns="http://www.w3.org/2000/svg" width="141.66" height="139.54" viewBox="0 0 141.66 139.54">
	<style type="text/css">
		.st0{fill:#ffffff;}
	</style>
	<path class="st0" d="M71.83,21.46L71.83,0.99C71.83,0.44 71.38,0 70.83,0C70.27,0 69.83,0.44 69.83,0.99L69.83,21.46C70.16,21.45 70.49,21.43 70.83,21.43C71.16,21.43 71.49,21.45 71.83,21.46"/>
	<path class="st0" d="M45.76,28.43C46.33,28.09 46.91,27.76 47.5,27.43L37.26,9.74C36.98,9.26 36.37,9.09 35.89,9.37C35.41,9.65 35.25,10.26 35.53,10.74Z"/>
	<path class="st0" d="M10.5,34.72C10.22,35.2 10.38,35.81 10.86,36.09L28.54,46.36C28.86,45.78 29.19,45.2 29.54,44.63L11.86,34.36C11.39,34.08 10.77,34.24 10.5,34.72"/>
	<path class="st0" d="M106.41,8.52C105.93,8.24 105.32,8.4 105.04,8.88L94.24,27.48C94.82,27.8 95.4,28.13 95.97,28.48L106.77,9.88C107.05,9.4 106.88,8.79 106.41,8.52"/>
	<path class="st0" d="M131.78,35.66C132.26,35.39 132.42,34.77 132.14,34.3C131.87,33.82 131.26,33.65 130.78,33.93L112.16,44.7C112.51,45.27 112.84,45.85 113.16,46.43Z"/>
	<path class="st0" d="M22.5,69.77C22.5,69.43 22.51,69.1 22.52,68.77L1,68.77C0.44,68.77 0,69.21 0,69.77C0,70.32 0.44,70.77 1,70.77L22.52,70.77C22.51,70.43 22.5,70.1 22.5,69.77"/>
	<path class="st0" d="M140.66,68.77L119.14,68.77C119.14,69.1 119.16,69.43 119.16,69.77C119.16,70.1 119.14,70.43 119.14,70.77L140.66,70.77C141.21,70.77 141.66,70.32 141.66,69.77C141.66,69.21 141.21,68.77 140.66,68.77"/>
	<path class="st0" d="M130.8,103.44L113.11,93.17C112.79,93.76 112.46,94.34 112.11,94.9L129.79,105.17C129.95,105.26 130.12,105.31 130.29,105.31C130.64,105.31 130.97,105.13 131.16,104.81C131.44,104.33 131.27,103.72 130.8,103.44"/>
	<path class="st0" d="M9.88,103.87C9.4,104.14 9.24,104.76 9.51,105.23C9.7,105.55 10.03,105.73 10.38,105.73C10.55,105.73 10.72,105.69 10.88,105.6L29.49,94.83C29.15,94.26 28.82,93.68 28.5,93.1Z"/>
	<path class="st0" d="M95.89,111.1C95.33,111.45 94.74,111.77 94.16,112.1L104.4,129.79C104.58,130.12 104.92,130.29 105.26,130.29C105.43,130.29 105.61,130.25 105.76,130.16C106.24,129.88 106.41,129.27 106.13,128.79Z"/>
	<path class="st0" d="M34.89,129.65C34.61,130.13 34.77,130.74 35.25,131.02C35.41,131.11 35.58,131.15 35.75,131.15C36.1,131.15 36.43,130.97 36.62,130.65L47.42,112.05C46.84,111.73 46.26,111.4 45.69,111.05Z"/>
	<path class="st0" d="M69.83,118.07L69.83,138.54C69.83,139.09 70.27,139.54 70.83,139.54C71.38,139.54 71.83,139.09 71.83,138.54L71.83,118.07C71.49,118.08 71.16,118.1 70.83,118.1C70.49,118.1 70.16,118.08 69.83,118.07"/>
	<path class="st0" d="M70.83,72.43C69.36,72.43 68.16,71.24 68.16,69.77C68.16,68.29 69.36,67.1 70.83,67.1C72.3,67.1 73.5,68.29 73.5,69.77C73.5,71.24 72.3,72.43 70.83,72.43M66.38,66.26C66.36,66.29 66.34,66.31 66.33,66.33C66.34,66.31 66.36,66.29 66.38,66.26M65.95,66.89C65.94,66.9 65.94,66.91 65.93,66.93C65.94,66.91 65.94,66.9 65.95,66.89M75.73,66.93C75.72,66.92 75.72,66.91 75.71,66.9C75.72,66.91 75.72,66.92 75.73,66.93M75.34,66.34C75.32,66.32 75.3,66.29 75.28,66.27C75.3,66.29 75.32,66.32 75.34,66.34M104.74,51.88C105.46,51.47 105.7,50.55 105.29,49.83C104.87,49.12 103.95,48.87 103.24,49.28L74.81,65.73C73.78,64.72 72.38,64.1 70.83,64.1C69.28,64.1 67.88,64.72 66.86,65.73L46.52,53.91C45.8,53.49 44.88,53.74 44.46,54.45C44.05,55.17 44.29,56.08 45.01,56.5L65.35,68.32C65.23,68.78 65.16,69.27 65.16,69.77C65.16,72.9 67.7,75.43 70.83,75.43C73.96,75.43 76.5,72.9 76.5,69.77C76.5,69.27 76.43,68.79 76.3,68.33Z"/>
</svg>
